<svg xmlns="http://www.w3.org/2000/svg" xmlns:xlink="http://www.w3.org/1999/xlink" version="1.1" x="0px" y="0px" viewBox="0 0 100 125" enable-background="new 0 0 100 100" xml:space="preserve"><path d="M68.076,71.293c-0.737,5.258-1.473,10.516-2.209,15.774c-0.267,1.909-3.158,1.094-2.893-0.798  c0.736-5.258,1.473-10.516,2.209-15.774C65.45,68.586,68.341,69.402,68.076,71.293z M80.003,53.257c0,0.442-0.161,0.777-0.402,1.017  c-0.012,0.014-0.026,0.027-0.039,0.041c-0.014,0.013-0.028,0.027-0.042,0.04c-0.24,0.241-0.576,0.402-1.017,0.402  c-1.041,0-2.082,0-3.123,0c-1.451,9.045-2.902,18.089-4.353,27.134c-0.296,1.846-0.129,7.684-1.971,8.884  c-4.286,2.792-10.68,3.241-15.595,3.162c-4.359-0.07-12.622,0.088-16.106-3.396c-1.576-1.576-1.349-6.889-1.661-8.904  c-1.386-8.96-2.772-17.919-4.158-26.879c-1.039,0-2.078,0-3.117,0c-0.818,0-1.5-0.682-1.5-1.5c0-3.505,0-7.01,0-10.515  c0-0.818,0.682-1.5,1.5-1.5c1.271,0,2.542,0,3.813,0c-1.47-1.715-2.714-3.596-3.651-5.601c-0.491-1.051,0.183-2.164,1.342-2.216  c1.734-0.078,3.461,0.057,5.16,0.358c-2.198-3.026-3.795-6.461-4.494-10.06c-0.226-1.165,0.68-2.072,1.845-1.845  c4.065,0.79,7.915,2.758,11.138,5.363c-0.578-3.19-0.595-6.503,0.051-9.65c0.189-0.922,1.427-1.41,2.203-0.896  c1.606,1.062,3.044,2.362,4.361,3.77c0.672-1.813,1.526-3.543,2.582-5.122c0.645-0.964,1.946-0.964,2.59,0  c1.071,1.602,1.917,3.332,2.571,5.133c1.32-1.412,2.762-2.716,4.372-3.781c0.776-0.514,2.014-0.026,2.203,0.896  c0.646,3.147,0.628,6.46,0.051,9.65c3.222-2.605,7.073-4.573,11.138-5.363c1.165-0.226,2.072,0.68,1.845,1.845  c-0.702,3.612-2.436,7.365-4.848,10.65c1.624-0.272,3.273-0.389,4.928-0.315c1.159,0.052,1.833,1.165,1.342,2.216  c-0.825,1.765-1.905,3.424-3.151,4.969c0.898,0,1.795,0,2.693,0c0.818,0,1.5,0.682,1.5,1.5  C80.003,46.247,80.003,49.752,80.003,53.257z M77.003,51.757c0-2.505,0-5.01,0-7.515c-15.694,0-31.389,0-47.083,0  c0,2.505,0,5.01,0,7.515c0.964,0,1.928,0,2.893,0c13.766,0,27.532,0,41.298,0C75.074,51.757,76.038,51.757,77.003,51.757z   M44.492,38.438c2.278,1.449,5.447,3.179,4.835,1.297c-0.381-1.171-0.937-2.269-1.588-3.314c-1.616-1.146-3.355-2.115-5.209-2.821  C42.99,35.28,43.665,36.9,44.492,38.438z M60.253,36.181c-1.009,1.472-1.712,2.999-1.586,4.369c0.079,0.865,3.178-1.02,5.51-2.583  c0.968-1.528,1.781-3.156,2.368-4.862C64.302,33.8,62.194,34.864,60.253,36.181z M70.151,31.422  c-0.117,0.537-0.273,1.067-0.429,1.597c1.859-2.258,3.33-4.786,4.247-7.577c-3.055,0.997-5.893,2.666-8.295,4.778  c0.877-0.271,1.769-0.497,2.677-0.661C69.494,29.352,70.398,30.288,70.151,31.422z M56.028,35.825  c-0.418-2.058-1.083-4.062-2.029-5.939c-0.9,1.764-1.548,3.656-1.974,5.594c0.08,0.432,0.169,0.861,0.284,1.285  c0.071,0.26,1.515,5.093,2.5,2.942C55.38,38.459,55.765,37.156,56.028,35.825z M42.745,30.478c-2.463-2.236-5.412-4.001-8.593-5.038  c1.109,3.404,3.044,6.48,5.516,9.067c-0.262-0.93-0.488-1.868-0.631-2.815c-0.174-1.147,0.787-2.024,1.914-1.746  C41.558,30.096,42.155,30.278,42.745,30.478z M75.071,37.117c-2.034,0.157-4.031,0.61-5.954,1.284  c-1.147,1.07-2.368,2.033-3.655,2.842c2.106,0,4.211,0,6.317,0C73.023,39.99,74.143,38.614,75.071,37.117z M58.918,23.867  c0.388,1.746,0.615,3.529,0.689,5.307c-0.022,1.042-0.048,2.146-0.113,3.27c0.25-0.31,0.506-0.614,0.765-0.914  c0.017-0.101,0.044-0.205,0.086-0.313c1.256-3.27,1.871-6.924,1.586-10.467C60.84,21.703,59.845,22.765,58.918,23.867z   M54.062,19.106c-1.402,2.749-2.251,5.797-2.472,8.872c0.344-0.637,0.714-1.257,1.114-1.855c0.645-0.964,1.946-0.964,2.59,0  c0.455,0.68,0.867,1.385,1.244,2.106C56.296,25.062,55.493,21.941,54.062,19.106z M46.197,20.752  c-0.285,3.543,0.331,7.197,1.586,10.467c0.029,0.076,0.043,0.147,0.06,0.219c0.225,0.25,0.449,0.505,0.673,0.767  c-0.189-2.797,0.036-5.639,0.665-8.371C48.262,22.743,47.276,21.693,46.197,20.752z M36.411,41.243c2.211,0,4.423,0,6.634,0  c-1.563-0.983-3.045-2.123-4.404-3.406c-1.988-0.716-4.06-1.189-6.17-1.352C33.557,38.237,34.899,39.834,36.411,41.243z   M72.359,54.757c-12.602,0-25.205,0-37.807,0c1.209,7.813,2.417,15.625,3.626,23.438c0.533,3.446,1.066,6.893,1.599,10.339  c0.047,0.023,0.075,0.038,0.132,0.064c0.904,0.431,1.853,0.786,2.821,1.044c4.059,1.081,8.326,1.476,12.523,1.265  c3.678-0.185,7.726-0.494,11.12-2.106c0.256-0.122,0.448-0.193,0.594-0.234c-0.005-0.079-0.003-0.173,0.017-0.301  c0.618-3.855,1.237-7.709,1.855-11.564C70.012,69.387,71.185,62.072,72.359,54.757z M48.63,16.585  c1.341,1.399,3.459-0.725,2.121-2.121c-0.969-1.011-1.937-2.022-2.906-3.033c-1.341-1.399-3.459,0.725-2.121,2.121  C46.692,14.564,47.661,15.575,48.63,16.585z M60.043,16.585c0.969-1.011,1.937-2.022,2.906-3.032  c1.338-1.396-0.781-3.52-2.121-2.121c-0.969,1.011-1.937,2.022-2.906,3.033C56.584,15.86,58.702,17.984,60.043,16.585z   M54.064,11.491c1.935,0,1.935-3,0-3C52.129,8.491,52.129,11.491,54.064,11.491z M42.936,10.768c1.935,0,1.935-3,0-3  C41.002,7.768,41.002,10.768,42.936,10.768z M65.525,10.768c1.935,0,1.935-3,0-3C63.59,7.768,63.59,10.768,65.525,10.768z"/><text x="0" y="115" fill="#000000" font-size="5px" font-weight="bold" font-family="'Helvetica Neue', Helvetica, Arial-Unicode, Arial, Sans-serif">Created by Adriane Harcourt</text><text x="0" y="120" fill="#000000" font-size="5px" font-weight="bold" font-family="'Helvetica Neue', Helvetica, Arial-Unicode, Arial, Sans-serif">from the Noun Project</text></svg>