<svg height="512pt" viewBox="-121 0 512 512" width="512pt" xmlns="http://www.w3.org/2000/svg"><path d="m172.132812 0-30.746093 93.257812 28.449219 99.488282 68.171874-36.5625c1.304688-8.496094 1.992188-17.3125 1.992188-26.335938 0-92.335937-63.578125-124.707031-67.867188-129.847656zm0 0" fill="#02914c"/><path d="m97.867188 0c-4.484376 5.378906-67.867188 37.101562-67.867188 129.847656 0 9.023438.6875 17.84375 1.992188 26.339844l68.171874 36.5625 28.449219-99.492188zm0 0" fill="#00ab5e"/><path d="m205.800781 185.199219-70.800781 65.101562-70.800781-65.101562c14.101562-67.800781 57.902343-117 59.699219-119.101563l11.101562-12.597656 11.101562 12.597656c1.796876 2.101563 45.597657 51.300782 59.699219 119.101563zm0 0" fill="#5bc980"/><path d="m205.800781 185.199219-70.800781 65.101562v-196.800781l11.101562 12.597656c1.796876 2.101563 45.597657 51.300782 59.699219 119.101563zm0 0" fill="#00ab5e"/><path d="m270 181c0 45.300781-18 85.800781-46.800781 113.402344l-80.28125-13.957032-7.917969-63.144531 121.5-106.199219 6.601562 22.5c4.496094 15.296876 6.898438 31.199219 6.898438 47.398438zm0 0" fill="#7fe881"/><path d="m135 217.300781-121.5-106.203125-6.601562 22.5c-4.5 15-6.898438 31.203125-6.898438 47.402344 0 59.398438 30.300781 111.597656 78.898438 136.199219 17.101562 9 36.300781 13.800781 56.101562 13.800781 29.699219 0 60.902344-11.398438 88.199219-36.597656zm0 0" fill="#7fe881"/><path d="m223.199219 294.402344c-27.296875 25.199218-58.5 36.597656-88.199219 36.597656v-113.699219zm0 0" fill="#5bc980"/><path d="m225 301h-180c-24.902344 0-45 20.097656-45 45v121c0 24.902344 20.097656 45 45 45h180c24.902344 0 45-20.097656 45-45v-121c0-24.902344-20.097656-45-45-45zm0 0" fill="#e0f4ff"/><g fill="#bbdcff"><path d="m270 346v121c0 24.902344-20.097656 45-45 45h-90v-211h90c24.902344 0 45 20.097656 45 45zm0 0"/><path d="m90 421h-30v-60h60v30h-30zm0 0"/></g></svg>