<?xml version="1.0"?>
<svg xmlns="http://www.w3.org/2000/svg" xmlns:xlink="http://www.w3.org/1999/xlink" version="1.1" id="Layer_1" x="0px" y="0px" viewBox="0 0 512 512" style="enable-background:new 0 0 512 512;" xml:space="preserve" width="512px" height="512px"><g><g>
	<g>
		<path d="M459.646,335.615c-11.06,0-21.322,3.457-29.784,9.332l-27.389-27.39c24.168-16.02,43.742-38.047,56.81-64.008    l46.879-93.141c1.592-3.163,1.429-6.923-0.427-9.936c-1.857-3.013-5.143-4.849-8.684-4.849H137.919L66.691,74.396    c-1.913-1.912-4.507-2.987-7.212-2.987H10.199C4.567,71.409,0,75.976,0,81.608s4.567,10.199,10.199,10.199h45.054l68.241,68.241    v251.938c0,11.76,6.749,21.861,17.614,26.361c3.64,1.508,7.4,2.245,11.101,2.245c7.344,0,14.466-2.901,19.995-8.43l86.835-86.836    h51.308c25.687,0,50.908-5.938,73.804-17.245l31.526,31.527c-5.293,8.18-8.382,17.913-8.382,28.36    c0,28.868,23.486,52.353,52.354,52.353S512,416.836,512,387.969S488.514,335.615,459.646,335.615z M157.778,417.738    c-3.566,3.567-7.687,2.251-8.863,1.763c-1.178-0.489-5.022-2.472-5.022-7.515v-66.659h86.297L157.778,417.738z M310.344,324.928    H143.892V166.023h336.606l-39.437,78.356C416.055,294.063,365.967,324.928,310.344,324.928z M459.646,419.923    c-17.62,0-31.955-14.335-31.955-31.954c0-17.62,14.335-31.955,31.955-31.955c17.62,0,31.955,14.335,31.955,31.955    C491.602,405.589,477.267,419.923,459.646,419.923z" data-original="#000000" class="active-path" data-old_color="#000000" fill="#FFFFFF"/>
	</g>
</g><g>
	<g>
		<path d="M289.657,180.966H169.307c-5.632,0-10.199,4.567-10.199,10.199s4.567,10.199,10.199,10.199h120.351    c5.632,0,10.199-4.567,10.199-10.199S295.289,180.966,289.657,180.966z" data-original="#000000" class="active-path" data-old_color="#000000" fill="#FFFFFF"/>
	</g>
</g><g>
	<g>
		<path d="M331.474,180.966h-7.139c-5.632,0-10.199,4.567-10.199,10.199s4.567,10.199,10.199,10.199h7.139    c5.632,0,10.199-4.567,10.199-10.199S337.106,180.966,331.474,180.966z" data-original="#000000" class="active-path" data-old_color="#000000" fill="#FFFFFF"/>
	</g>
</g></g> </svg>
